<?xml version="1.0" ?><!DOCTYPE svg  PUBLIC '-//W3C//DTD SVG 1.1//EN'  'http://www.w3.org/Graphics/SVG/1.1/DTD/svg11.dtd'><svg enable-background="new 0 0 32 32" height="32px" id="Layer_1" version="1.1" viewBox="0 0 32 32" width="32px" xml:space="preserve" xmlns="http://www.w3.org/2000/svg" xmlns:xlink="http://www.w3.org/1999/xlink"><g id="euro_x2C__currency_x2C__money"><g id="purse_2_"><g><g><path d="M1.5,9C1.224,9,1,8.776,1,8.5S1.224,8,1.5,8c14.384,0,23.066,0,25.584-3.777      c0.123-0.184,0.351-0.266,0.561-0.201C27.855,4.085,28,4.279,28,4.5V7c0,0.276-0.224,0.5-0.5,0.5S27,7.276,27,7V5.826      C23.441,9,14.882,9,1.5,9z" fill="#263238"/></g></g><g><g><g><path d="M13.979,11.058c-1.78,0-3.686-0.014-5.713-0.027C6.113,11.016,3.851,11,1.5,11       C1.224,11,1,10.776,1,10.5S1.224,10,1.5,10c2.354,0,4.618,0.016,6.772,0.03c10.592,0.069,18.957,0.13,20.865-1.875       c0.142-0.148,0.359-0.195,0.548-0.119C29.875,8.111,30,8.296,30,8.5v2c0,0.276-0.224,0.5-0.5,0.5S29,10.776,29,10.5V9.492       C26.592,10.83,21.389,11.058,13.979,11.058z" fill="#263238"/></g></g></g></g><g><g><g><path d="M17.327,25.024c-2.506,0-4.545-2.039-4.545-4.546s2.039-4.546,4.545-4.546      c0.729,0,1.454,0.177,2.096,0.511c0.245,0.127,0.34,0.43,0.212,0.674c-0.127,0.244-0.43,0.339-0.674,0.213      c-0.507-0.265-1.057-0.398-1.634-0.398c-1.955,0-3.545,1.591-3.545,3.546s1.59,3.546,3.545,3.546      c0.812,0,1.576-0.268,2.209-0.772c0.216-0.172,0.531-0.137,0.703,0.079c0.172,0.216,0.137,0.53-0.079,0.702      C19.36,24.673,18.354,25.024,17.327,25.024z" fill="#263238"/></g></g><g><g><path d="M18,22h-5.5c-0.276,0-0.5-0.224-0.5-0.5s0.224-0.5,0.5-0.5H18c0.276,0,0.5,0.224,0.5,0.5      S18.276,22,18,22z" fill="#263238"/></g></g><g><g><path d="M18,20h-5.5c-0.276,0-0.5-0.224-0.5-0.5s0.224-0.5,0.5-0.5H18c0.276,0,0.5,0.224,0.5,0.5      S18.276,20,18,20z" fill="#263238"/></g></g></g><g><g><g><path d="M1.5,12C1.224,12,1,12.224,1,12.5S1.224,13,1.5,13H30v14H1.5C1.224,27,1,27.224,1,27.5l0,0      C1,27.776,1.224,28,1.5,28h29c0.276,0,0.5-0.224,0.5-0.5v-15c0-0.276-0.224-0.5-0.5-0.5H1.5z" fill="#263238"/></g></g><g><g><path d="M1,14.499V27.5C1,27.776,1.224,28,1.5,28l0,0C1.776,28,2,27.776,2,27.5V14.499      c0-0.276-0.224-0.5-0.5-0.5S1,14.223,1,14.499z" fill="#263238"/></g></g></g></g></svg>